PathFileType	4	(X/Y/Z)	D:\telocate\uwb07-Unnamed.trc
DataRate	CameraRate	NumFrames	NumMarkers	Units	OrigDataRate	OrigDataStartFrame	OrigNumFrames
100.00	100.00	     126	0	mm	100.00	11575	     23149
Frame#	Time	
		

11575	115.740	2095.27246	851.88104	2037.30054	
11576	115.750	2091.39160	858.87732	2035.05823	
11577	115.760	2087.31519	866.11560	2032.54260	
11578	115.770	2082.82422	872.13910	2029.66541	
11579	115.780	2078.45825	878.17999	2026.80701	
11580	115.790	2073.47241	884.71661	2023.74866	
11581	115.800	2068.63721	891.24622	2020.89160	
11582	115.810	2064.77051	897.52637	2017.89807	
11583	115.820	2058.38916	902.63287	2014.97156	
11584	115.830	2052.01025	908.10840	2011.25745	
11585	115.840	2049.72485	914.03601	2009.21045	
11586	115.850	2045.75171	919.30573	2006.39734	
11587	115.860	2040.84033	924.65405	2003.76819	
11588	115.870	2034.71643	929.20099	2000.42834	
11589	115.880	2030.93799	933.93848	1998.22595	
11590	115.890	2026.63171	938.50134	1995.17017	
11591	115.900	2021.91357	942.89026	1992.16602	
11592	115.910	2016.66089	947.22437	1989.32849	
11593	115.920	2009.01599	950.58771	1986.46838	
11594	115.930	2006.39307	954.57733	1983.55188	
11595	115.940	1995.68408	956.12982	1979.72437	
11596	115.950	1993.26501	960.39917	1978.33533	
11597	115.960	1988.72021	963.78680	1975.45776	
11598	115.970	1982.14673	967.12549	1973.20374	
11599	115.980	1976.65210	970.00488	1971.04517	
11600	115.990	1972.21423	973.36475	1968.68555	
11601	116.000	1967.40930	976.00385	1966.36975	
11602	116.010	1959.91418	978.68304	1964.46802	
11603	116.020	1957.48511	981.96082	1962.21655	
11604	116.030	1952.74402	984.52533	1960.28528	
11605	116.040	1946.96545	986.66937	1958.28369	
11606	116.050	1943.06616	989.13391	1956.51367	
11607	116.060	1937.06018	991.22571	1954.37305	
11608	116.070	1932.37061	992.94940	1952.07190	
11609	116.080	1925.21521	995.05493	1950.31824	
11610	116.090	1920.83655	997.22351	1948.32422	
11611	116.100	1916.15027	999.33887	1946.38220	
11612	116.110	1911.58838	1000.76849	1944.07825	
11613	116.120	1907.99243	1002.81543	1942.19128	
11614	116.130	1902.24902	1004.77283	1939.52588	
11615	116.140	1897.85876	1006.08032	1937.90198	
11616	116.150	1890.22107	1006.82434	1935.41125	
11617	116.160	1885.70825	1007.64923	1933.02576	
11618	116.170	1880.57520	1009.59216	1931.37024	
11619	116.180	1877.07092	1010.20557	1928.99719	
11620	116.190	1868.82446	1011.20398	1927.41748	
11621	116.200	1867.97534	1012.30438	1924.50403	
11622	116.210	1862.68164	1013.56482	1922.64575	
11623	116.220	1857.63196	1013.82764	1920.51184	
11624	116.230	1853.65161	1014.45532	1918.01709	
11625	116.240	1848.57471	1014.84351	1915.98560	
11626	116.250	1842.55481	1014.19818	1913.91626	
11627	116.260	1838.92517	1014.58124	1911.61877	
11628	116.270	1834.72546	1014.58319	1909.54199	
11629	116.280	1828.55884	1014.02545	1907.37366	
11630	116.290	1827.02930	1014.69189	1905.04187	
11631	116.300	1821.72266	1014.05945	1902.81934	
11632	116.310	1817.54041	1013.77893	1901.02673	
11633	116.320	1811.33459	1012.43848	1898.43713	
11634	116.330	1806.64648	1011.65869	1896.03223	
11635	116.340	1802.91357	1011.16095	1893.78931	
11636	116.350	1799.95898	1010.15039	1891.39148	
11637	116.360	1795.46448	1008.98041	1889.02100	
11638	116.370	1790.43079	1007.37976	1886.14905	
11639	116.380	1789.22168	1007.11829	1884.69885	
11640	116.390	1785.07581	1005.83997	1882.17493	
11641	116.400	1781.99207	1004.12354	1879.88708	
11642	116.410	1779.16626	1002.46582	1877.63855	
11643	116.420	1776.85168	1000.66956	1874.40234	
11644	116.430	1773.87805	998.72736	1872.60278	
11645	116.440	1768.57056	996.71240	1869.94629	
11646	116.450	1766.13538	994.69525	1867.63538	
11647	116.460	1763.22119	992.55609	1865.06873	
11648	116.470	1761.41956	990.83173	1862.67590	
11649	116.480	1759.37952	987.95099	1860.04004	
11650	116.490	1758.14319	986.53009	1857.84167	
11651	116.500	1755.16577	984.11206	1854.69275	
11652	116.510	1753.82617	982.09888	1852.90662	
11653	116.520	1752.08630	979.89935	1850.31006	
11654	116.530	1749.71179	977.41101	1847.96655	
11655	116.540	1746.03198	974.60504	1845.88635	
11656	116.550	1744.32324	972.66650	1843.88562	
11657	116.560	1742.72766	970.40784	1841.44031	
11658	116.570	1741.16077	968.44763	1839.86755	
11659	116.580	1739.76465	966.53467	1837.97156	
11660	116.590	1737.90161	964.37585	1835.70007	
11661	116.600	1736.63013	962.37573	1834.12061	
11662	116.610	1734.99939	960.45483	1832.56372	
11663	116.620	1731.76672	958.43750	1830.74463	
11664	116.630	1730.83289	956.79242	1829.15662	
11665	116.640	1731.04968	955.05035	1827.82532	
11666	116.650	1730.69580	953.83423	1826.03662	
11667	116.660	1729.23633	951.99335	1824.93835	
11668	116.670	1728.82813	950.47125	1823.28198	
11669	116.680	1727.87891	948.33289	1821.43738	
11670	116.690	1726.99255	946.85712	1820.12769	
11671	116.700	1726.54993	944.72668	1819.18188	
11672	116.710	1725.13013	943.38904	1817.77368	
11673	116.720	1722.84351	941.61530	1816.25623	
11674	116.730	1722.16052	939.80402	1814.84705	
11675	116.740	1721.93921	938.52948	1813.46338	
11676	116.750	1720.79065	936.87128	1811.58545	
11677	116.760	1720.06165	935.58295	1810.39368	
11678	116.770	1719.50879	934.22919	1809.46777	
11679	116.780	1719.24548	933.09509	1807.67090	
11680	116.790	1719.06030	931.75354	1805.98901	
11681	116.800	1718.92517	930.49634	1804.99341	
11682	116.810	1718.44836	929.37775	1803.51929	
11683	116.820	1718.35522	927.95465	1802.18872	
11684	116.830	1718.15125	926.92444	1800.55969	
11685	116.840	1718.40979	925.94226	1798.85669	
11686	116.850	1718.50928	924.86487	1797.72546	
11687	116.860	1718.91174	923.68207	1795.59851	
11688	116.870	1719.03357	923.01666	1793.58875	
11689	116.880	1719.46106	922.50043	1792.12976	
11690	116.890	1719.83032	921.97540	1790.37488	
11691	116.900	1718.99414	920.77362	1788.70032	
11692	116.910	1719.02075	920.20807	1787.47107	
11693	116.920	1718.43408	919.63013	1785.61890	
11694	116.930	1717.50781	919.27448	1783.82141	
11695	116.940	1716.40173	918.96661	1782.52893	
11696	116.950	1714.44482	918.92786	1781.10034	
11697	116.960	1712.69836	918.39557	1779.38196	
11698	116.970	1708.93152	917.98065	1777.47913	
11699	116.980	1708.68396	919.11505	1776.26880	
11700	116.990	1707.22937	919.91736	1774.94531	
